# Blender v2.66 (sub 1) OBJ File: ''
# www.blender.org
mtllib CornellBox.mtl
o backWall
v -0.990000 0.000000 -1.040000
v 1.000000 0.000000 -1.040000
v 1.000000 1.990000 -1.040000
v -1.020000 1.990000 -1.040000
vn 0.000000 -0.000000 1.000000
usemtl backWall
s off
f 1//1 2//1 3//1
f 4//1 1//1 3//1
o floor
v -1.010000 -0.000000 0.990000
v 1.000000 -0.000000 0.990000
v 1.000000 0.000000 -1.040000
v -0.990000 0.000000 -1.040000
vn 0.000000 1.000000 0.000000
usemtl floor
s off
f 5//2 6//2 8//2
f 6//2 7//2 8//2
o shortBox
v -0.530000 1.200000 0.090000
v 0.040000 1.200000 -0.090000
v -0.140000 1.200000 -0.670000
v -0.710000 1.200000 -0.490000
v -0.530000 -0.000000 0.090000
v -0.530000 1.200000 0.090000
v -0.710000 1.200000 -0.490000
v -0.710000 0.000000 -0.490000
v -0.710000 0.000000 -0.490000
v -0.710000 1.200000 -0.490000
v -0.140000 1.200000 -0.670000
v -0.140000 0.000000 -0.670000
v -0.140000 0.000000 -0.670000
v -0.140000 1.200000 -0.670000
v 0.040000 1.200000 -0.090000
v 0.040000 0.000000 -0.090000
v 0.040000 0.000000 -0.090000
v 0.040000 1.200000 -0.090000
v -0.530000 1.200000 0.090000
v -0.530000 -0.000000 0.090000
vn -0.955064 -0.000000 0.296399
vn -0.301131 0.000000 -0.953583
vn 0.955064 0.000000 -0.296399
vn 0.301131 -0.000000 0.953583
usemtl tallBox
s off
f 9//2 10//2 12//2
f 13//3 14//3 16//3
f 17//4 18//4 20//4
f 21//5 22//5 23//5
f 25//6 26//6 27//6
f 10//2 11//2 12//2
f 14//3 15//3 16//3
f 18//4 19//4 20//4
f 24//5 21//5 23//5
f 28//6 25//6 27//6
o ceiling
v -1.020000 1.990000 0.990000
v -1.020000 1.990000 -1.040000
v 1.000000 1.990000 -1.040000
v 1.000000 1.990000 0.990000
vn -0.000000 -1.000000 -0.000000
usemtl ceiling
s off
f 29//7 30//7 31//7
f 32//7 29//7 31//7
o leftWall
v -1.010000 -0.000000 0.990000
v -0.990000 0.000000 -1.040000
v -1.020000 1.990000 -1.040000
v -1.020000 1.990000 0.990000
v 0.530000 0.600000 0.750000
v 0.700000 0.600000 0.170000
v 0.130000 0.600000 0.000000
v -0.050000 0.600000 0.570000
v -0.050000 -0.000000 0.570000
v -0.050000 0.600000 0.570000
v 0.130000 0.600000 0.000000
v 0.130000 0.000000 0.000000
v 0.530000 -0.000000 0.750000
v 0.530000 0.600000 0.750000
v -0.050000 0.600000 0.570000
v -0.050000 -0.000000 0.570000
v 0.700000 -0.000000 0.170000
v 0.700000 0.600000 0.170000
v 0.530000 0.600000 0.750000
v 0.530000 -0.000000 0.750000
v 0.130000 0.000000 0.000000
v 0.130000 0.600000 0.000000
v 0.700000 0.600000 0.170000
v 0.700000 -0.000000 0.170000
vn -0.953583 0.000000 -0.301131
vn -0.296399 -0.000000 0.955064
vn 0.959629 -0.000000 0.281270
vn 0.285805 0.000000 -0.958288
vn 0.999838 0.015073 0.009851
vn 0.999987 0.005025 0.000000
usemtl shortBox
s off
f 37//2 38//2 40//2
f 41//8 42//8 44//8
f 45//9 46//9 48//9
f 49//10 50//10 51//10
f 53//11 54//11 55//11
f 38//2 39//2 40//2
f 42//8 43//8 44//8
f 46//9 47//9 48//9
f 52//10 49//10 51//10
f 56//11 53//11 55//11
usemtl leftWall
f 33//12 34//12 35//12
f 36//13 33//13 35//13
o light
v -0.240000 1.980000 0.160000
v -0.240000 1.980000 -0.220000
v 0.230000 1.980000 -0.220000
v 0.230000 1.980000 0.160000
usemtl light
s off
f 57//7 58//7 59//7
f 60//7 57//7 59//7
o rightWall
v 1.000000 0.000000 -1.040000
v 1.000000 -0.000000 0.990000
v 1.000000 1.990000 0.990000
v 1.000000 1.990000 -1.040000
vn -1.000000 -0.000000 -0.000000
usemtl rightWall
s off
f 61//14 62//14 64//14
f 62//14 63//14 64//14
